<svg width="100" height="100" viewBox="0 0 100 100" fill="none" xmlns="http://www.w3.org/2000/svg">
<path d="M72.4913 14.4688H72.4982C73.1291 14.5012 73.7386 14.7123 74.255 15.0763C74.7703 15.4395 75.1725 15.9407 75.4152 16.5226V16.5235C75.6139 17.0045 75.5943 17.2858 75.4698 17.6134C75.3021 18.0549 74.9404 18.5785 74.2628 19.4815L50.0421 47.9337L43.2013 39.6681L70.7032 15.1456L70.7189 15.131L70.7345 15.1153C70.9671 14.8928 71.2439 14.7208 71.546 14.6095C71.848 14.4983 72.17 14.4504 72.4913 14.4688Z" stroke="#6247B0" stroke-width="2.5"/>
<path d="M64.0292 44.4167L23.9792 5.99584C23.1857 5.01362 22.0695 4.34479 20.8292 4.10834C20.0077 4.08911 19.1994 4.31613 18.508 4.76018C17.8167 5.20423 17.2741 5.84498 16.95 6.6C16.3208 8.1125 16.7708 9.17084 18.1583 11.1542L50.0333 49.8417L26.3042 78.9833C25.686 79.6221 25.2475 80.4128 25.0332 81.2754C24.8188 82.1381 24.8361 83.042 25.0833 83.8958C25.4035 84.6725 25.9488 85.3356 26.6491 85.7997C27.3493 86.2638 28.1724 86.5077 29.0125 86.5C29.5548 86.4888 30.0882 86.36 30.5759 86.1226C31.0637 85.8852 31.4941 85.5449 31.8375 85.125L64.0125 55.2083C64.7672 54.5282 65.371 53.6973 65.785 52.7695C66.1989 51.8416 66.4138 50.8373 66.4157 49.8213C66.4177 48.8053 66.2067 47.8001 65.7964 46.8707C65.386 45.9412 64.7854 45.1081 64.0333 44.425L64.0292 44.4167Z" fill="#6247B0"/>
<path d="M48.9991 50.5889L49.0001 50.5899L81.1964 89.3985L81.2364 89.4464L81.2813 89.4903C81.7295 89.9317 82.0509 90.4857 82.212 91.0938C82.368 91.6827 82.3664 92.3014 82.211 92.8897C82.0172 93.3669 81.6912 93.7794 81.2686 94.0753C80.8315 94.3813 80.3129 94.5497 79.7794 94.5587L79.7403 94.5596L79.7012 94.5626C79.3688 94.589 79.0344 94.5405 78.7227 94.4219C78.4111 94.3034 78.1293 94.1176 77.8985 93.877L77.8809 93.8585L77.8633 93.8419L37.0255 54.4874C36.3958 53.8778 35.8949 53.1478 35.5528 52.3409C35.2104 51.5332 35.0342 50.6644 35.0342 49.7872C35.0343 48.9101 35.2105 48.0419 35.5528 47.2344C35.8933 46.4312 36.3911 45.7037 37.0167 45.0958L41.2764 41.2559L48.9991 50.5889Z" stroke="#6247B0" stroke-width="2.5"/>
</svg>
