<svg width="100" height="100" viewBox="0 0 100 100" fill="none" xmlns="http://www.w3.org/2000/svg">
<path d="M28.6563 95.8313C25.5832 95.8613 22.5361 95.2656 19.7005 94.0804C16.865 92.8953 14.3003 91.1454 12.1625 88.9375C10.0159 86.7925 8.31446 84.2443 7.15604 81.4394C5.99763 78.6346 5.40511 75.6284 5.41254 72.5937C5.41254 66.2937 7.81879 60.45 12.3125 56.0938L23.8625 44.55C25.6625 42.7562 28.5063 42.7562 30.1563 44.55C31.9563 46.35 31.9563 49.2 30.1563 50.85L18.6125 62.3937C17.2712 63.7305 16.209 65.3208 15.488 67.0719C14.7669 68.823 14.4014 70.7 14.4125 72.5937C14.4125 76.4937 15.9125 79.9375 18.6125 82.7875C19.9486 84.1281 21.5378 85.1898 23.2878 85.9109C25.0378 86.6319 26.9136 86.9978 28.8063 86.9875C32.5563 86.9875 36.1563 85.4875 39.0063 82.7875L53.6938 68.1C56.3624 65.4059 57.8595 61.7671 57.8595 57.975C57.8595 54.1829 56.3624 50.5441 53.6938 47.85C52.4634 46.6373 51.0504 45.625 49.5063 44.85C48.4169 44.3476 47.5696 43.4357 47.1483 42.3124C46.7271 41.189 46.7659 39.9449 47.2563 38.85C48.3 36.6 51 35.5563 53.25 36.6C55.8 37.8063 58.2 39.3063 60.1438 41.4063C62.3181 43.5676 64.0436 46.1375 65.221 48.9681C66.3985 51.7987 67.0046 54.8342 67.0046 57.9C67.0046 60.9658 66.3985 64.0013 65.221 66.8319C64.0436 69.6625 62.3181 72.2324 60.1438 74.3937L45.4563 89.0813C40.932 93.4069 34.9157 95.8242 28.6563 95.8313Z" fill="#6247B0"/>
<path d="M50.1 65.0938C49.473 65.0869 48.8564 64.9328 48.3 64.6438C45.75 63.4438 43.35 61.9437 41.4062 59.85C39.2241 57.6912 37.491 55.1217 36.3067 52.2898C35.1225 49.4579 34.5105 46.4196 34.5062 43.35C34.5062 37.0563 36.9062 31.2063 41.4062 26.8563L56.0937 12.1688C58.2552 9.99352 60.8254 8.26723 63.6567 7.08922C66.4879 5.91122 69.5241 5.30476 72.5906 5.30476C75.6571 5.30476 78.6933 5.91122 81.5245 7.08922C84.3558 8.26723 86.926 9.99352 89.0875 12.1688C91.2601 14.3304 92.9841 16.9 94.1605 19.73C95.337 22.56 95.9426 25.5946 95.9426 28.6594C95.9426 31.7242 95.337 34.7587 94.1605 37.5887C92.9841 40.4187 91.2601 42.9884 89.0875 45.15L77.5375 56.7C75.7437 58.5 72.8937 58.5 71.2437 56.7C69.4437 54.9 69.4437 52.05 71.2437 50.4L82.7875 38.8563C85.4542 36.1624 86.9501 32.5249 86.9501 28.7344C86.9501 24.9438 85.4542 21.3064 82.7875 18.6125C80.0936 15.9458 76.4562 14.4499 72.6656 14.4499C68.875 14.4499 65.2376 15.9458 62.5437 18.6125L47.8562 33.3063C46.5145 34.6418 45.4516 36.2308 44.7295 37.9808C44.0074 39.7308 43.6404 41.6069 43.65 43.5C43.65 47.4 45.15 50.85 47.85 53.7C49.05 54.9 50.55 55.95 52.05 56.7C54.3 57.75 55.35 60.45 54.3 62.7C53.8616 63.4235 53.2457 64.0232 52.5107 64.4421C51.7757 64.861 50.9459 65.0853 50.1 65.0938Z" fill="#6247B0"/>
</svg>
