<svg width="100" height="100" viewBox="0 0 100 100" fill="none" xmlns="http://www.w3.org/2000/svg">
<path opacity="0.99" d="M48.1249 49.1667L47.9583 49.5417L47.7916 49.375C46.1249 53.625 44.2916 57.875 42.2499 61.9583L42.6249 61.7917V62.1667C46.7083 60.6667 51.1249 59.375 55.2083 58.4583L55.0416 58.2917H55.5833C52.7499 55.4583 50.1666 52.3333 48.1249 49.1667ZM46.8333 22.3333H46.2916C46.1249 22.3333 45.7499 22.3333 45.5416 22.5C44.7916 25.6667 45.3749 29 46.6666 31.9583C47.7499 28.7917 47.7499 25.4583 46.8333 22.3333ZM22.2083 77.875L22.7499 77.7083C25.3333 76.7917 27.3749 74.9167 28.8749 72.5417C26.1249 73.625 23.8749 75.4583 22.2083 77.875ZM73.3333 59C71.6666 59 70.1666 59 68.4999 59.375C70.3333 60.2917 72.2083 60.6667 74.0416 60.875C75.3333 61.0417 76.6249 60.875 77.7499 60.5C77.7499 59.9167 77.0416 59 73.3333 59Z" fill="#6247B0"/>
<path opacity="0.99" d="M83.3334 8.33333H16.6667C12.0834 8.33333 8.33337 12.0833 8.33337 16.6667V83.3333C8.33337 87.9167 12.0834 91.6667 16.6667 91.6667H83.3334C87.9167 91.6667 91.6667 87.9167 91.6667 83.3333V16.6667C91.6667 12.0833 87.9167 8.33333 83.3334 8.33333ZM83.3334 60.0833C83.3334 66.375 77.2084 66.375 74.0834 66.375C69.0834 66 64.2917 64.1667 60.375 60.8333C52.7917 62.5 45.5834 64.9167 38.3334 67.875C32.5834 78.0417 27.2084 83.25 22.5834 83.25C21.6667 83.25 20.5417 83.0833 19.7917 82.5C17.75 81.5833 16.625 79.5417 16.625 77.5C16.625 75.8333 17 71.2083 34.5834 63.625C38.6667 56.2083 41.7917 48.625 44.375 40.6667C42.1667 36.2083 37.3334 25.2917 40.6667 19.75C41.7917 17.7083 44 16.5833 46.4167 16.7917C48.25 16.7917 50.125 17.7083 51.25 19.2083C53.6667 22.5417 53.4584 29.5833 50.3334 39.9583C53.2917 45.5 57.1667 50.5 61.7917 54.75C65.6667 54 69.5834 53.4583 73.4584 53.4583C82.2084 53.625 83.5 57.7083 83.3334 60.0833Z" fill="#6247B0"/>
</svg>
