<svg width="100" height="100" viewBox="0 0 100 100" fill="none" xmlns="http://www.w3.org/2000/svg">
<path d="M91.3541 18.1787H8.44575C7.10446 18.1787 6.0072 19.2759 6.0072 20.6172V77.9192C6.0072 79.2599 7.10446 80.3576 8.44575 80.3576H91.3541C92.6959 80.3576 93.7926 79.2599 93.7926 77.9192V20.6173C93.7923 19.276 92.6959 18.1787 91.3541 18.1787ZM19.1905 71.8229C19.1905 72.4924 18.6415 73.0422 17.9711 73.0422H12.4848C11.8145 73.0422 11.2654 72.4924 11.2654 71.8229V66.3365C11.2654 65.6647 11.8144 65.1173 12.4848 65.1173H17.9711C18.6414 65.1173 19.1905 65.6648 19.1905 66.3365V71.8229ZM19.1905 58.4115C19.1905 59.0804 18.6415 59.6308 17.9711 59.6308H12.4848C11.8145 59.6308 11.2654 59.0804 11.2654 58.4115V52.9251C11.2654 52.2533 11.8144 51.7061 12.4848 51.7061H17.9711C18.6414 51.7061 19.1905 52.2534 19.1905 52.9251V58.4115ZM19.1905 45.6115C19.1905 46.2818 18.6415 46.831 17.9711 46.831H12.4848C11.8145 46.831 11.2654 46.2819 11.2654 45.6115V40.1251C11.2654 39.4548 11.8144 38.9058 12.4848 38.9058H17.9711C18.6414 38.9058 19.1905 39.4548 19.1905 40.1251V45.6115ZM19.1905 32.2C19.1905 32.8703 18.6415 33.4192 17.9711 33.4192H12.4848C11.8145 33.4192 11.2654 32.8704 11.2654 32.2V26.7135C11.2654 26.0431 11.8144 25.4942 12.4848 25.4942H17.9711C18.6414 25.4942 19.1905 26.0431 19.1905 26.7135V32.2ZM74.8943 72.2304C74.8943 73.5711 73.7979 74.6689 72.4559 74.6689H27.344C26.0029 74.6689 24.9056 73.5711 24.9056 72.2304V26.2561C24.9056 24.9149 26.0029 23.8176 27.344 23.8176H72.4559C73.798 23.8176 74.8943 24.9149 74.8943 26.2561V72.2304ZM88.5344 71.8229C88.5344 72.4924 87.9854 73.0422 87.3151 73.0422H81.8288C81.1583 73.0422 80.6095 72.4924 80.6095 71.8229V66.3365C80.6095 65.6647 81.1583 65.1173 81.8288 65.1173H87.3151C87.9854 65.1173 88.5344 65.6648 88.5344 66.3365V71.8229ZM88.5344 58.4115C88.5344 59.0804 87.9854 59.6308 87.3151 59.6308H81.8288C81.1583 59.6308 80.6095 59.0804 80.6095 58.4115V52.9251C80.6095 52.2533 81.1583 51.7061 81.8288 51.7061H87.3151C87.9854 51.7061 88.5344 52.2534 88.5344 52.9251V58.4115ZM88.5344 45.6115C88.5344 46.2818 87.9854 46.831 87.3151 46.831H81.8288C81.1583 46.831 80.6095 46.2819 80.6095 45.6115V40.1251C80.6095 39.4548 81.1583 38.9058 81.8288 38.9058H87.3151C87.9854 38.9058 88.5344 39.4548 88.5344 40.1251V45.6115ZM88.5344 32.2C88.5344 32.8703 87.9854 33.4192 87.3151 33.4192H81.8288C81.1583 33.4192 80.6095 32.8704 80.6095 32.2V26.7135C80.6095 26.0431 81.1583 25.4942 81.8288 25.4942H87.3151C87.9854 25.4942 88.5344 26.0431 88.5344 26.7135V32.2ZM40.1161 60.5438L62.6804 49.2853L40.1161 37.9918V60.5438Z" fill="#6247B0"/>
</svg>
